[b]POSTER.

[img]http://ia.media-imdb.com/images/M/MV5BNTM5OTA2MTc2N15BMl5BanBnXkFtZTcwMjI3NDQyNg@@._V1._SY317_CR4,0,214,317_.jpg[/img]


 º     Plot.     º
 

A group of five mountaineers are hiking and climbing in the Scottish Highlands when they 
discover a young Serbian girl buried in a small chamber in the wilderness. They become 
caught up in a terrifying game of cat and mouse with the kidnappers as they try to get 
the girl to safety.  Written by Carnaby International


 º   General.    º


Complete name          : A.Lonely.Place.to.Die.2011.[ENG].[DvDRip].XviD.AC3 - {RedDragon}
Format                 : MPEG-4
Format profile         : Base Media / Version 2
Codec ID               : mp42
File size              : 700 MiB
Duration               : 1h 39mn
Overall bit rate       : 987 Kbps
Encoded date           : UTC 2011-12-24 05:12:13
Tagged date            : UTC 2011-12-24 05:18:26
Language               : English
IMDb                   : http://www.imdb.com/title/tt1422136/
IMDb Rating            : 7.1/10


 º    Video.     º
 

ID                               : 1
Format                           : MPEG-4 Visual
Format profile                   : Simple@L1
Format settings, BVOP            : No
Format settings, QPel            : No
Format settings, GMC             : No warppoints
Format settings, Matrix          : Default (H.263)
Codec ID                         : 20
Duration                         : 1h 39mn
Bit rate mode                    : Variable
Bit rate                         : 823 Kbps
Maximum bit rate                 : 11.9 Mbps
Width                            : 720 pixels
Height                           : 304 pixels
Display aspect ratio             : 2.35:1
Frame rate mode                  : Variable
Frame rate                       : 23.976 fps
Minimum frame rate               : 23.974 fps
Maximum frame rate               : 23.981 fps
Color space                      : YUV
Chroma subsampling               : 4:2:0
Bit depth                        : 8 bits
Scan type                        : Progressive
Bits/(Pixel*Frame)               : 0.157
Stream size                      : 584 MiB (83%)
Writing library                  : Lavc52.94.3
Encoded date                     : UTC 2011-12-24 05:12:13
Tagged date                      : UTC 2011-12-24 05:18:26


 º    Audio.     º
 

ID                               : 2
Format                           : AAC
Format/Info                      : Advanced Audio Codec
Format version                   : Version 4
Format profile                   : LC
Format settings, SBR             : No
Codec ID                         : 40
Duration                         : 1h 39mn
Bit rate mode                    : Variable
Bit rate                         : 160 Kbps
Maximum bit rate                 : 203 Kbps
Channel(s)                       : 2 channels
Channel positions                : Front: L R
Sampling rate                    : 48.0 KHz
Stream size                      : 113 MiB (16%)
Encoded date                     : UTC 2011-12-24 05:12:13
Tagged date                      : UTC 2011-12-24 05:18:26


SCREEN SHOTS.


[IMG]http://imagestorage.org/images/46613395483289596451.jpg[/IMG]

[IMG]http://imagestorage.org/images/37193871581260458473.jpg[/IMG]

[IMG]http://imagestorage.org/images/07401663696239414285.jpg[/IMG]

[IMG]http://imagestorage.org/images/36813110628336795839.jpg[/IMG]

[IMG]http://imagestorage.org/images/95747470026319221645.jpg[/IMG]

[IMG]http://imagestorage.org/images/46385264846348282864.jpg[/IMG]


TORRENT STATS.


[img]http://torrent-stats.info/6f02/ba0bfd1a.png[/img][/b]